<?xml version="1.0" encoding="UTF-8"?>
<svg version="1.1" viewBox="0 0 1600 1600" width="1280" height="1280" xmlns="http://www.w3.org/2000/svg">
<path transform="translate(0)" d="m0 0h1600v1600h-1600v-1600z" fill="#FBFEFE"/>
<path transform="translate(1048,678)" d="m0 0c0.681 0.0965 1.36 0.193 2.06 0.292 19.6 2.92 36.8 11.4 49.2 27.3 14.4 19.7 17.1 42.9 13.5 66.7-3.16 15.6-10.7 27.5-21.8 38.7-0.737 0.773-1.47 1.55-2.23 2.34-20.5 20.1-49.5 20-76.3 19.9-3.38-0.0107-6.76-4.05e-5 -10.1 0.0127-28.4 0.0181-50.5-1.88-73.3-20.3-0.742-0.588-1.49-1.18-2.25-1.78-14-11.6-22.6-28.2-24.8-46.2-1.38-24 3.65-46.1 19.7-64.8 17.4-18.2 40.7-23.6 65-24.2 42.9-0.77 42.9-0.77 61.3 1.94z" fill="#323030"/>
<path transform="translate(385,612)" d="m0 0c0.9 0.408 1.8 0.815 2.73 1.23 2.64 1.2 5.27 2.42 7.9 3.64 0.8 0.369 1.6 0.738 2.42 1.12 0.739 0.35 1.48 0.7 2.24 1.06 0.647 0.304 1.29 0.608 1.96 0.921 2 1.17 3.37 2.16 4.75 4.02-0.104 2.06-0.104 2.06-1 4-6.18 3.79-12.7 5.45-19.7 7.25-11.8 3.17-23 7.12-34.3 11.8-0.693 0.278-1.39 0.556-2.1 0.842-29.2 11.8-55 30.1-80.6 48.1-5.74 4.03-11.5 8.01-17.3 12-6.09 4.18-12.1 8.52-18 12.9-0.717 0.523-1.43 1.05-2.17 1.59-0.631 0.464-1.26 0.928-1.91 1.41-1.91 1.28-3.72 2.37-5.85 3.25-0.66-0.33-1.32-0.66-2-1v-2c-0.99-0.33-1.98-0.66-3-1v-3h-2v-2c-3.49 0.77-3.49 0.77-7 2-0.33 0.99-0.66 1.98-1 3-1.55 1.4-3.17 2.72-4.81 4-13.8 11-26.9 23.4-38.2 37-0.728 0.874-1.46 1.75-2.21 2.65-2.29 2.77-4.54 5.56-6.79 8.35-0.629 0.761-1.26 1.52-1.91 2.3-0.547 0.683-1.09 1.37-1.66 2.07-0.713 0.878-0.713 0.878-1.44 1.77-1.28 2.38-1.17 4.19-0.996 6.85h2v3c0.959 0.155 0.959 0.155 1.94 0.312 1.02 0.34 1.02 0.34 2.06 0.688 0.33 0.99 0.66 1.98 1 3-1.53 2.1-3.07 3.96-4.81 5.88-1.03 1.18-2.05 2.35-3.08 3.53-0.523 0.599-1.05 1.2-1.58 1.82-18.2 21.2-31.9 46.1-44.8 70.7-0.504 0.959-1.01 1.92-1.53 2.91-4.36 8.37-8.24 16.5-10.7 25.7-0.315 1.15-0.315 1.15-0.637 2.32-1.06 3.93-2.03 7.86-2.89 11.8-1.64 7.6-3.14 14-7.97 20.3-1.32-0.33-2.64-0.66-4-1-1.06-67.2-1.06-67.2 5-94 0.392-1.95 0.78-3.91 1.16-5.87 8.23-40.5 25-79.2 46.8-114 0.441-0.703 0.881-1.41 1.33-2.13 6.6-10.4 14-20.2 21.7-29.9 0.759-0.976 1.52-1.95 2.3-2.96 12-15.1 25.9-29.8 40.7-42 0.515-0.429 1.03-0.858 1.56-1.3 56.4-46.7 120-65.8 188-34.7z" fill="#F0A33F"/>
<path transform="translate(441,656)" d="m0 0c0.729 0.23 1.46 0.461 2.21 0.698 5 1.6 9.9 3.4 14.8 5.3 1.51 0.567 1.51 0.567 3.06 1.14 35 13.7 67.1 37.3 91.3 66 1.85 2.17 3.8 4.24 5.74 6.32 5.84 6.48 11 13.4 16.3 20.4 1.49 1.99 2.99 3.96 4.49 5.94 6.45 8.54 12.1 17.4 17.6 26.6 1.63 2.76 3.29 5.52 4.94 8.27 3.61 6.05 7.12 12.2 10.6 18.3 0.501 0.886 1 1.77 1.52 2.69 15.2 27.4 24.4 59.9 30 90.6 0.287 1.56 0.603 3.12 1.01 4.65 0.946 3.99 1.15 8.09 1.5 12.2 0.131 1.5 0.131 1.5 0.265 3.02 0.77 9.31 1.14 18.6 1.39 28 0.0316 1.08 0.0632 2.16 0.0957 3.28 0.0239 0.953 0.0479 1.91 0.0725 2.89 0.125 2.84 0.125 2.84 0.697 5.79 0.484 3.05 0.505 5.76 0.356 8.85l-0.146 3.22c-0.0561 1.09-0.112 2.19-0.17 3.32-0.0522 1.12-0.104 2.24-0.158 3.39-0.129 2.75-0.264 5.49-0.404 8.24-4.73-0.717-4.73-0.717-7.12-3.26-2.97-5-3.72-10.9-4.94-16.6-3.34-14.3-8.56-27-14.9-40.2-0.825-1.75-1.65-3.51-2.47-5.27-9.14-19.2-20.7-37.4-33.3-54.5-2.22-3.21-2.22-3.21-2.22-5.21h3c-3.17-13.8-10.4-26-19-37-0.806-1.07-1.61-2.14-2.41-3.21-5.8-7.72-11.8-15.3-18.8-21.9-1.74-1.85-1.74-1.85-1.74-3.85h-2v-2c-0.588-0.258-1.18-0.517-1.78-0.783-2.39-1.31-3.86-2.7-5.71-4.69-0.641-0.67-1.28-1.34-1.94-2.03-1.33-1.41-2.66-2.83-3.98-4.26-0.643-0.668-1.29-1.34-1.95-2.02-0.865-0.924-0.865-0.924-1.75-1.87-2.41-1.73-3.98-1.6-6.88-1.35v2c0.66 0.33 1.32 0.66 2 1-0.701-0.0825-1.4-0.165-2.12-0.25-3.79 0.33-5.8 2.09-8.88 4.25-7.06-5.36-14-10.8-20.9-16.4-11.2-9.2-22.9-17.7-35.1-25.6-0.783-0.504-1.57-1.01-2.37-1.53-11.8-7.57-23.6-15.1-35.6-22.3-1.27-0.761-2.53-1.52-3.79-2.29-25.6-15.5-55.9-27.1-84.6-35.6-0.809-0.249-1.62-0.498-2.45-0.755-0.744-0.222-1.49-0.444-2.25-0.673-1.9-0.866-1.9-0.866-3.9-3.87 11.8-12.3 30.6-22.4 47-27 1.17-0.369 2.34-0.737 3.55-1.12 21.8-6.12 50.9-5.91 72.4 1.12z" fill="#F0A33F"/>
<path transform="translate(709 672)" d="m0 0c13.7 2.84 25.9 17.4 35.8 26.7 6.18 5.71 12.5 11.3 18.8 16.8 4.05 3.56 8.05 7.19 12.1 10.8 0.804 0.722 1.61 1.44 2.44 2.19 6.05 5.43 12 10.9 18 16.4 2.51 2.3 5.02 4.61 7.53 6.91 1 0.918 2 1.84 3 2.75 1.99 1.82 3.97 3.64 5.96 5.46 0.735 0.673 0.735 0.673 1.48 1.36 0.991 0.908 1.98 1.81 2.98 2.72 2.64 2.42 5.27 4.85 7.87 7.32 10 9.52 10 9.52 21.7 16.9-0.00277-0.557-0.00553-1.11-0.00838-1.69-0.0663-13.6-0.116-27.1-0.147-40.7-0.0157-6.56-0.0369-13.1-0.0709-19.7-0.0326-6.33-0.0505-12.7-0.0583-19-0.00555-2.42-0.0164-4.83-0.0326-7.25-0.0217-3.38-0.0248-6.76-0.0234-10.1-0.0108-1-0.0216-2-0.0327-3.03 0.039-8.73 0.039-8.73 3.37-12.5 2.62-0.583 2.62-0.583 5.73-0.523 1.11 0.0116 2.23 0.0232 3.38 0.0352 1.74 0.0561 1.74 0.0561 3.52 0.113 1.76 0.0213 1.76 0.0213 3.55 0.043 8.65 0.15 8.65 0.15 9.83 1.33 0.105 1.95 0.14 3.9 0.147 5.85 0.0107 1.91 0.0107 1.91 0.0217 3.85 0.00284 1.42 0.00555 2.85 0.00815 4.27 0.00626 1.49 0.0129 2.98 0.0199 4.46 0.0174 4.05 0.028 8.11 0.0362 12.2 0.00515 2.53 0.0112 5.06 0.0175 7.6 0.0191 7.92 0.0333 15.8 0.0416 23.8 0.00977 9.15 0.0361 18.3 0.0765 27.4 0.0302 7.07 0.045 14.1 0.0483 21.2 0.00235 4.22 0.0113 8.44 0.0365 12.7 0.0233 3.97 0.0275 7.95 0.0172 11.9-4.96e-4 1.46 0.00583 2.91 0.0196 4.37 0.0177 1.99 0.00823 3.99-0.00253 5.98 0.00239 1.11 0.00478 2.23 0.00724 3.38-0.764 4.8-3.63 9.12-7.49 12.1-5.11 1.37-9.65 0.0148-14.2-2.31-6.27-3.72-11.7-8.42-17.1-13.2-2.17-1.9-4.38-3.74-6.59-5.59-6.37-5.32-12.5-10.9-18.6-16.5-2.42-2.24-4.85-4.45-7.28-6.67-4.68-4.28-9.31-8.6-13.9-12.9-4.35-4.07-8.72-8.1-13.2-12-3.2-2.8-6.32-5.69-9.45-8.57-3.97-3.65-7.98-7.27-12-10.9-2.34-2.12-4.66-4.25-6.97-6.4-8.07-7.47-16-14.4-25.6-19.9v111h-28c-1.76-1.76-1.14-4.24-1.15-6.62-0.00716-1.22-0.0143-2.44-0.0217-3.7-0.00284-1.37-0.00555-2.73-0.00815-4.1-0.00626-1.43-0.0129-2.86-0.0199-4.29-0.0174-3.89-0.028-7.79-0.0362-11.7-0.00515-2.43-0.0112-4.86-0.0175-7.29-0.0191-7.61-0.0333-15.2-0.0416-22.8-0.00977-8.78-0.0361-17.6-0.0765-26.3-0.0302-6.78-0.045-13.6-0.0483-20.4-0.00235-4.05-0.0113-8.11-0.0365-12.2-0.0233-3.82-0.0275-7.63-0.0172-11.4 4.95e-4 -1.4-0.00583-2.8-0.0196-4.2-0.12-12.9-0.12-12.9 4.49-18 0.458-0.71 0.915-1.42 1.39-2.15 2.6-3.57 4.35-5.4 8.93-5.16z" fill="#323030"/>
<path transform="translate(1070 717)" d="m0 0c11 11.7 14.7 22.7 14.6 38.4 0.0161 0.973 0.0322 1.95 0.0488 2.95 0.00808 12.1-3.58 21.2-11.7 30.2-0.887 0.804-1.77 1.61-2.69 2.44-0.636 0.628-1.27 1.26-1.93 1.9-15.2 14.5-35.6 14.6-55.5 14.5-3.07-0.0161-6.13-5.53e-5 -9.2 0.019-21.7 0.0226-42.3-1.9-58.7-17.6-4.23-4.54-7.38-9-9.67-14.8-0.371-0.871-0.742-1.74-1.12-2.64-4.6-12-4.19-23.3 0.59-35.1 5.72-12 16-24.2 28.5-29.2 29.3-10.2 82.4-13.7 107 9.06z" fill="#FBFEFF"/>
<path transform="translate(1224 673)" d="m0 0c6.98 2.75 11.1 9.2 15 15.3 1.21 1.86 2.42 3.71 3.63 5.57 1.04 1.61 1.04 1.61 2.11 3.25 4.6 7.05 9.3 14 14 21 2.77 4.15 5.54 8.3 8.31 12.5 1.06 1.58 2.11 3.17 3.17 4.75 1.9 2.86 3.81 5.71 5.71 8.57 3.92 5.88 7.85 11.8 11.8 17.6 6.7 10 13.4 20 19.8 30.2 5.21 8.37 10.8 16.4 16.5 24.5 2.24 3.17 4.46 6.34 6.64 9.55 0.746 1.09 0.746 1.09 1.51 2.2 1.08 1.83 1.08 1.83 1.08 3.83-4.61 0.0992-9.22 0.172-13.8 0.22-1.57 0.0201-3.13 0.0473-4.7 0.082-2.26 0.0487-4.51 0.0713-6.77 0.0889-0.696 0.0206-1.39 0.0413-2.11 0.0626-3.5 0.0016-5.44-0.355-8.42-2.26-1.85-1.87-3.31-3.52-4.68-5.74-0.423-0.673-0.847-1.35-1.28-2.04-0.66-1.07-0.66-1.07-1.33-2.16-0.971-1.52-1.94-3.03-2.91-4.55-1.96-3.09-3.86-6.2-5.73-9.34-0.908-1.45-1.82-2.91-2.73-4.36-0.584-1.03-0.584-1.03-1.18-2.08-1.78-2.79-3.15-4.64-6.47-5.42-8.27-0.562-16.5-0.62-24.8-0.589-1.51 0.00187-3.02 0.00329-4.53 0.00429-3.93 0.00378-7.87 0.0136-11.8 0.0247-4.03 0.0103-8.06 0.0148-12.1 0.0198-7.88 0.0107-15.8 0.0277-23.6 0.0488-0.33-0.66-0.66-1.32-1-2 0.665-1.66 0.665-1.66 1.77-3.62 0.396-0.706 0.791-1.41 1.2-2.14 0.424-0.737 0.848-1.47 1.29-2.23 0.409-0.737 0.817-1.47 1.24-2.23 3.13-5.51 3.13-5.51 6.51-7.77 10.5-2.22 22.1-1.11 32.7-1.06 1.97 0.00502 3.95 0.00959 5.92 0.0137 4.8 0.0109 9.6 0.0281 14.4 0.0488-2.99-6.17-2.99-6.17-6.56-12-0.462-0.684-0.924-1.37-1.4-2.07-0.488-0.714-0.976-1.43-1.48-2.16-1.07-1.58-2.13-3.16-3.2-4.75-0.551-0.817-1.1-1.63-1.67-2.48-7.82-11.7-15.4-23.5-22.7-35.5-3.77 3.39-6.16 7.21-8.75 11.5-4.23 6.96-8.71 13.7-13.2 20.5-13.2 19.6-13.2 19.6-25.9 39.6-4.15 6.62-8.46 13.1-12.8 19.6-1.3 1.93-2.58 3.88-3.87 5.82-11 16.7-11 16.7-15.4 21-2.44 0.175-4.76 0.232-7.2 0.195-0.707-0.00283-1.41-0.00566-2.14-0.00858-2.26-0.0112-4.52-0.0363-6.79-0.0617-1.53-0.01-3.07-0.0192-4.6-0.0273-3.76-0.0221-7.52-0.0566-11.3-0.0977-0.33-0.99-0.66-1.98-1-3 1.12-1.99 1.12-1.99 2.88-4.31 2.97-4.06 5.8-8.19 8.5-12.4 0.569-0.89 0.569-0.89 1.15-1.8 1.53-2.39 3.05-4.79 4.58-7.19 4.73-7.45 9.59-14.8 14.6-22 3.42-4.94 6.78-9.92 10.1-14.9 0.493-0.741 0.985-1.48 1.49-2.24 1.57-2.36 3.13-4.71 4.69-7.07 8.97-13.5 18-27 27.3-40.3 4.22-6.04 8.29-12.1 12.3-18.3 18-28 18-28 28.3-25.2z" fill="#323030"/>
<path transform="translate(1505 676)" d="m0 0c1.16 0.00967 2.33 0.0193 3.53 0.0293 1.21 0.0251 2.43 0.0503 3.68 0.0762 1.84 0.0203 1.84 0.0203 3.72 0.041 3.03 0.0354 6.06 0.0848 9.1 0.146 2.15 3.5 2.24 6.26 2.2 10.3-0.00566 1.3-0.0113 2.6-0.0172 3.94-0.0165 1.44-0.0332 2.88-0.0501 4.32-0.0104 1.52-0.02 3.04-0.0287 4.55-0.0262 4.12-0.0648 8.24-0.106 12.4-0.0406 4.31-0.0698 8.61-0.1 12.9-0.0592 8.15-0.129 16.3-0.202 24.5-0.0829 9.28-0.154 18.6-0.225 27.8-0.145 19.1-0.305 38.2-0.474 57.3-4.11 0.0247-8.22 0.0428-12.3 0.0549-1.4 0.00504-2.8 0.0119-4.2 0.0205-2.01 0.0121-4.02 0.0173-6.02 0.0222-1.21 0.00524-2.42 0.0105-3.67 0.0159-2.78-0.114-2.78-0.114-3.78-1.11-0.124-2.05-0.178-4.11-0.205-6.17-0.0099-0.644-0.0198-1.29-0.03-1.95-0.0317-2.14-0.0564-4.27-0.0811-6.41-0.0206-1.48-0.0416-2.96-0.063-4.43-0.0553-3.9-0.105-7.8-0.153-11.7-0.0502-3.97-0.106-7.95-0.161-11.9-0.108-7.8-0.209-15.6-0.307-23.4-1.06-0.0103-2.12-0.0206-3.21-0.0312-9.98-0.0976-20-0.2-29.9-0.308-5.13-0.0552-10.3-0.109-15.4-0.158-4.95-0.0476-9.89-0.1-14.8-0.156-1.89-0.0204-3.78-0.0391-5.67-0.0561-2.64-0.024-5.28-0.0541-7.92-0.0856-1.18-0.00863-1.18-0.00863-2.39-0.0174-5.41-0.0738-5.41-0.0738-7.64-1.19-0.255-3.44-0.474-6.87-0.688-10.3-0.0728-0.976-0.146-1.95-0.221-2.96-0.0548-0.938-0.11-1.88-0.166-2.84-0.0576-0.864-0.115-1.73-0.175-2.62 0.249-2.27 0.249-2.27 1.25-3.89 3.16-2.18 6.53-1.77 10.2-1.72 0.839-4.38e-4 1.68-8.76e-4 2.54-0.00133 2.78 0.00209 5.55 0.0254 8.33 0.0489 1.92 0.00559 3.85 0.00987 5.77 0.0129 5.07 0.0115 10.1 0.0409 15.2 0.0741 5.17 0.0307 10.3 0.0444 15.5 0.0595 10.1 0.0322 20.3 0.0834 30.4 0.146-0.00999-1.16-0.00999-1.16-0.0202-2.33-0.0601-7.25-0.106-14.5-0.135-21.8-0.0157-3.73-0.0369-7.46-0.0709-11.2-0.0326-3.6-0.0505-7.2-0.0583-10.8-0.00555-1.37-0.0164-2.75-0.0326-4.12-0.0217-1.92-0.023-3.84-0.0234-5.77-0.00999-1.64-0.00999-1.64-0.0202-3.32 0.361-2.71 0.361-2.71 1.71-4.57 2.51-1.74 4.61-1.48 7.63-1.44z" fill="#323030"/>
<path transform="translate(1361 677)" d="m0 0c1.03 0.00411 2.06 0.00822 3.12 0.0125 1.12 0.00193 2.23 0.00387 3.38 0.00586 1.76 0.0184 1.76 0.0184 3.55 0.0371 1.17 6.45e-4 2.35 0.00129 3.56 0.00195 8.74 0.0454 8.74 0.0454 9.88 1.19 0.0967 2.01 0.122 4.03 0.12 6.04 0.00137 1.31 0.00275 2.63 0.00417 3.98-0.00354 1.47-0.00717 2.94-0.0109 4.41-2.82e-4 1.54-1.24e-4 3.07 4.43e-4 4.61 2.88e-4 4.19-0.00561 8.37-0.0126 12.6-0.00623 4.37-0.00684 8.74-0.00803 13.1-0.00311 8.28-0.0113 16.6-0.0213 24.8-0.0112 9.42-0.0167 18.8-0.0217 28.3-0.0105 19.4-0.0281 38.8-0.0503 58.2-4.48 0.0289-8.96 0.0468-13.4 0.0625-1.28 0.00838-2.56 0.0168-3.88 0.0254-1.21 0.00322-2.43 0.00645-3.68 0.00977-1.69 0.00786-1.69 0.00786-3.41 0.0159-2.59-0.114-2.59-0.114-3.59-1.11-0.101-1.98-0.131-3.97-0.134-5.95-0.00426-1.29-0.00853-2.59-0.0129-3.92 3.5e-4 -1.45 8.11e-4 -2.9 0.00137-4.34-0.00299-1.51-0.00639-3.03-0.0102-4.54-0.00886-4.12-0.0112-8.25-0.0118-12.4-9.47e-4 -3.44-0.00462-6.87-0.00817-10.3-0.00815-8.11-0.0106-16.2-0.00987-24.3 6.01e-4 -8.37-0.00995-16.7-0.0257-25.1-0.0131-7.18-0.0184-14.4-0.0178-21.5 2.56e-4 -4.29-0.00263-8.58-0.0132-12.9-0.00965-4.04-0.00978-8.07-0.00248-12.1 0.00105-1.48-0.00134-2.97-0.00736-4.45-0.00766-2.02-0.0019-4.04 0.00463-6.06-5.45e-4 -1.13-0.00109-2.27-0.00165-3.43 0.336-3.58 1.15-4.54 4.75-4.89z" fill="#323030"/>
<path transform="translate(246 736)" d="m0 0c1.7-0.024 1.7-0.024 3.43-0.0484 1.84-0.00804 1.84-0.00804 3.72-0.0163 1.88-0.0135 1.88-0.0135 3.8-0.0274 2.66-0.0145 5.32-0.0242 7.98-0.0271 3.41-0.00539 6.81-0.0431 10.2-0.0887 3.25-0.0369 6.5-0.0383 9.75-0.0443 1.84-0.0293 1.84-0.0293 3.71-0.0592 1.13 0.00608 2.27 0.0122 3.44 0.0184 1-0.00507 2-0.0101 3.03-0.0154 2.51 0.615 2.51 0.615 4.34 2.8 1.28 3.08 1.5 5.11 1.42 8.43-0.0202 1.1-0.0405 2.2-0.0614 3.34-0.0374 1.18-0.0747 2.35-0.113 3.57-0.0397 1.82-0.0397 1.82-0.0801 3.68-0.0877 3.87-0.197 7.74-0.307 11.6-0.0633 2.63-0.125 5.25-0.186 7.88-0.151 6.44-0.32 12.9-0.502 19.3-11.9 0.72-23.7 1.19-35.5 1.19-2.38 0.00224-4.77 0.0207-7.15 0.0393-1.54 0.00293-3.08 0.00492-4.61 0.00586-0.702 0.00719-1.4 0.0144-2.13 0.0218-4.14-0.0193-8.47-0.152-11.6-3.25-0.104-1.74-0.139-3.48-0.145-5.22-0.00638-1.11-0.0128-2.23-0.0193-3.38-0.00111-1.21-0.00223-2.43-0.00337-3.68-0.00333-1.24-0.00666-2.47-0.0101-3.75-0.00507-2.62-0.00741-5.24-0.00725-7.87 8.14e-5 -2.7-0.00688-5.39-0.0205-8.09-0.0182-3.87-0.0232-7.74-0.0247-11.6-0.00719-1.21-0.0144-2.42-0.0218-3.67 0.00308-1.12 0.00615-2.24 0.00932-3.39-0.00143-0.987-0.00285-1.97-0.00432-2.99 0.513-4.89 3.48-4.62 7.66-4.67z" fill="#F0A33F"/>
<path transform="translate(247 823)" d="m0 0c1.73-0.00946 1.73-0.00946 3.5-0.0191 1.25 0.00405 2.5 0.0081 3.79 0.0123 1.28-0.00191 2.56-0.00383 3.88-0.0058 2.71-0.00295 5.42 0.00134 8.13 0.0107 3.48 0.0114 6.95 0.00483 10.4-0.00714 3.31-0.00896 6.62-0.00269 9.93 0.00226 1.88-0.00607 1.88-0.00607 3.79-0.0123 1.15 0.0063 2.31 0.0126 3.5 0.0191 1.02 0.00159 2.04 0.00318 3.09 0.00482 2.43 0.254 2.43 0.254 4.43 2.25 0.247 2.4 0.247 2.4 0.243 5.44 0.00461 1.71 0.00461 1.71 0.00932 3.45-0.00719 1.23-0.0144 2.47-0.0218 3.74-4.58e-4 1.26-9.16e-4 2.52-0.00139 3.82-0.00303 2.67-0.00985 5.33-0.0233 8-0.017 3.43-0.0208 6.85-0.0201 10.3-3.37e-4 3.26-0.00917 6.52-0.0178 9.78-0.00111 1.24-0.00223 2.47-0.00337 3.74-0.00638 1.13-0.0128 2.27-0.0193 3.44-0.00572 1.51-0.00572 1.51-0.0116 3.04-0.134 2.27-0.134 2.27-1.13 3.27-2.93 0.108-5.82 0.14-8.75 0.125-1.4-0.00508-1.4-0.00508-2.83-0.0103-9.21-0.0623-18.4-0.226-27.6-0.434-1.69-0.0371-3.38-0.0711-5.07-0.102-2.4-0.0452-4.8-0.103-7.2-0.165-1.09-0.0173-1.09-0.0173-2.21-0.035-5.08-0.15-5.08-0.15-7.31-2.38-0.254-2.32-0.254-2.32-0.259-5.24-0.0063-1.09-0.0126-2.19-0.0191-3.32 0.00405-1.19 0.0081-2.37 0.0123-3.6-0.00191-1.21-0.00383-2.43-0.0058-3.68-0.00136-2.57 0.00234-5.14 0.0107-7.71 0.0107-3.94 1.08e-4 -7.89-0.0127-11.8 0.00132-2.49 0.00388-4.98 0.00781-7.47-0.00607-1.78-0.00607-1.78-0.0123-3.6 0.0063-1.09 0.0126-2.19 0.0191-3.32 0.00159-0.967 0.00318-1.93 0.00482-2.93 0.539-4.92 3.6-4.57 7.77-4.57z" fill="#F0A33F"/>
<path transform="translate(389,821)" d="m0 0c1.63 1.63 1.13 3.48 1.13 5.73 0.00315 1.01 0.0063 2.02 0.00955 3.06-0.00202 1.1-0.00405 2.2-0.00613 3.34 9.57e-4 1.13 0.00191 2.26 0.0029 3.42 6.83e-4 2.4-0.00118 4.8-0.00534 7.2-0.0053 3.65-8.07e-5 7.3 0.00635 10.9-6.62e-4 2.33-0.00194 4.67-0.00391 7 0.00202 1.08 0.00405 2.17 0.00613 3.28-0.0195 6.41-0.363 12.7-1.14 19-1.29-0.0722-2.58-0.144-3.91-0.219-13.6-0.701-27.1-0.864-40.7-0.744-0.675 0.00423-1.35 0.00846-2.05 0.0128-1.85 0.0119-3.7 0.0296-5.54 0.0477-2.8-0.0977-2.8-0.0977-4.8-1.1-0.0463-7.53-0.0819-15.1-0.104-22.6-0.0104-3.5-0.0246-6.99-0.0473-10.5-0.0258-4.02-0.0356-8.03-0.0444-12-0.0103-1.26-0.0206-2.52-0.0313-3.81-1.51e-4 -1.16-3.02e-4 -2.32-4.58e-4 -3.52-0.00444-1.03-0.00888-2.05-0.0135-3.11 0.241-2.44 0.241-2.44 2.24-4.44 2.86-0.16 2.86-0.16 6.75-0.0625 9.92 0.16 19.8-0.217 29.7-0.582 13.7-0.497 13.7-0.497 18.5-0.355z" fill="#F0A33F"/>
<path transform="translate(379 736)" d="m0 0c0.89-0.00911 1.78-0.0182 2.7-0.0276 1.21-0.0149 1.21-0.0149 2.44-0.0301 2.13 0.104 2.13 0.104 5.13 1.1 2.47 3.7 2.24 6.47 2.16 10.7-0.0052 0.766-0.0104 1.53-0.0158 2.32-0.0178 2.46-0.0489 4.91-0.0819 7.37-0.0369 3.21-0.0669 6.41-0.0898 9.62-0.00631 0.777-0.0126 1.55-0.0191 2.36-0.018 5.36 0.277 10.6 0.923 15.9 0.154 3.31-0.333 6.39-0.877 9.66-7.38 0.331-14.8 0.645-22.1 0.938-3.43 0.136-6.85 0.279-10.3 0.434-3.94 0.178-7.88 0.332-11.8 0.484-1.85 0.0888-1.85 0.0888-3.73 0.179-1.14 0.0403-2.28 0.0805-3.46 0.122-1.01 0.0422-2.01 0.0844-3.05 0.128-2.52-0.285-2.52-0.285-4.34-1.49-1.53-2.33-1.59-3.85-1.64-6.63-0.0262-0.981-0.0525-1.96-0.0795-2.97-0.0127-1.06-0.0253-2.12-0.0384-3.21-0.0227-1.09-0.0454-2.18-0.0688-3.31-0.0446-2.31-0.082-4.62-0.113-6.93-0.0487-3.53-0.124-7.06-0.203-10.6-0.04-2.25-0.0785-4.49-0.115-6.74-0.0228-1.05-0.0456-2.11-0.069-3.19-0.103-9.75-0.103-9.75 2.15-14.2 3.95-1.32 7.78-1.24 11.9-1.32 0.882-0.0208 1.76-0.0416 2.67-0.063 2.83-0.0654 5.65-0.124 8.48-0.183 1.88-0.0432 3.75-0.0868 5.63-0.131 1.82-0.0414 3.64-0.0824 5.47-0.123 1.25-0.0281 1.25-0.0281 2.53-0.0568 3.35-0.0693 6.69-0.116 10-0.173z" fill="#F0A33F"/>
<path transform="translate(752,860)" d="m0 0c4.73 4.01 8.24 7.7 9 14 0.497 6.98 0.937 15.4-3.73 21.1-0.647 0.67-1.29 1.34-1.96 2.03-2.98 3.08-2.98 3.08-3.5 7.38 1.09 3.22 2.48 6.03 4.09 9.01 1.68 3.79 2.54 7.75 3.52 11.8 1.32 5.18 3.25 9.74 5.73 14.5 0.974 2.58 0.81 3.72-0.145 6.27-1.89-0.186-1.89-0.186-3.81-0.375-0.708-0.0696-1.42-0.139-2.14-0.211-2.04-0.414-2.04-0.414-5.04-2.41-0.92-2.59-0.92-2.59-1.68-5.86-0.288-1.18-0.576-2.36-0.873-3.58-0.291-1.24-0.581-2.48-0.881-3.76-2.27-11.1-2.27-11.1-7.56-20.8-3.19-1.69-3.19-1.69-6.81-2.44-1.18-0.308-2.36-0.616-3.58-0.934-3.61-0.63-6.95-0.746-10.6-0.629-2.52 3.83-2.35 7.84-2.41 12.3-0.0194 0.793-0.0387 1.59-0.0587 2.4-0.0596 2.53-0.106 5.05-0.152 7.58-0.0382 1.72-0.0772 3.43-0.117 5.15-0.0959 4.2-0.18 8.4-0.258 12.6-6.15 0.0977-6.15 0.0977-8 0-2-2-1.18-6.03-1.19-8.78-0.00818-0.815-0.0164-1.63-0.0248-2.47-0.0249-2.71-0.0414-5.41-0.0558-8.12-0.00532-0.922-0.0106-1.84-0.0161-2.79-0.0267-4.88-0.0461-9.76-0.0605-14.6-0.0167-5.05-0.0614-10.1-0.112-15.1-0.0336-3.87-0.0452-7.75-0.0509-11.6-0.00673-1.86-0.022-3.72-0.0459-5.59-0.0315-2.6-0.0317-5.2-0.0243-7.81-0.0164-0.773-0.0328-1.55-0.0497-2.34 0.0252-2.15 0.0252-2.15 0.633-5.69 9.39-7.79 32.1-5.76 42 0z" fill="#323030"/>
<path transform="translate(1379 861)" d="m0 0c5.44 5.68 10.5 14.3 11 22.2-0.528 6.34-3.28 11.8-7.64 16.4-10.1 8.46-21.6 10.1-34.4 9.91-2.6-0.264-2.6-0.264-3.68 1.05-0.0885 2.52-0.115 5.01-0.0977 7.54 0.00212 1.13 0.00212 1.13 0.00429 2.28 0.00561 2.41 0.0182 4.83 0.0309 7.24 0.00501 1.63 0.00958 3.27 0.0137 4.9 0.011 4.01 0.0283 8.02 0.0488 12-6.15 0.0977-6.15 0.0977-8 0-1.98-1.98-1.17-5.87-1.18-8.58-0.00657-0.794-0.0131-1.59-0.0199-2.4-0.0198-2.64-0.0314-5.27-0.0414-7.91-0.00408-0.899-0.00815-1.8-0.0124-2.72-0.0209-4.76-0.0352-9.51-0.0445-14.3-0.0111-4.92-0.0455-9.84-0.0852-14.8-0.0261-3.78-0.0345-7.55-0.0381-11.3-0.00488-1.81-0.0165-3.63-0.035-5.44-0.0243-2.54-0.0234-5.07-0.0165-7.61-0.0128-0.751-0.0256-1.5-0.0388-2.28 0.035-3.5 0.236-5.34 2.42-8.14 9.88-7.33 32.6-5.68 41.8 1.85z" fill="#323030"/>
<path transform="translate(818 883)" d="m0 0c5.97 4 10 9.16 12 16.1 0.82 4.79 1.01 9.68 0.43 14.5-2 2-2 2-5.9 2.23-1.68-3.17e-4 -3.36-0.0117-5.05-0.0317-0.885-0.00283-1.77-0.00566-2.68-0.00858-2.83-0.0112-5.67-0.0363-8.5-0.0617-1.92-0.01-3.84-0.0192-5.75-0.0273-4.71-0.0221-9.41-0.0566-14.1-0.0977-0.33-0.66-0.66-1.32-1-2-1.98 3.95-0.0803 8.89 1 13 2.87 5.5 8.31 8.03 14 10 8.24 1.46 17 1.67 25-1 0.495 2.48 0.495 2.48 1 5-9.43 5.73-18.9 6.43-29.8 3.88-7.81-2.4-13.6-7.24-18.2-13.9-4.41-9.53-5.03-18.1-2.04-28.2 3.22-8.71 8.13-15.7 16.4-20.1 8.74-3.85 14.8-3.99 23.2 0.641z" fill="#323030"/>
<path transform="translate(1165 882)" d="m0 0c4.97 3.05 7.88 6.48 9.54 12.1 1.39 6.73 1.33 13.6 1.46 20.4 0.222 9.97 0.631 19.9 1.44 29.8-3.72 0.201-4.77 0.152-8-2-4.29-0.644-7.32 0.436-11.2 2-6.29 2.37-11.8 3.62-18.2 1-6.1-3.55-9.55-8.24-11.6-15-0.41-4.22 0.665-7.36 2.62-11.1 6.3-7.63 13.8-12.1 23.4-14.7 4.31-0.275 8.62-0.264 12.9-0.188-0.664-5.11-1.17-8.96-4.44-13.1-5.25-3.97-11.2-3.44-17.6-2.94-3.5 1.33-3.5 1.33-6 3h-2c-0.75-1.69-0.75-1.69-1-4 5.38-9.03 19.7-9.45 28.6-5.38z" fill="#323030"/>
<path transform="translate(880 884)" d="m0 0c5.1 3.51 7.53 7.51 9.16 13.5 0.2 2.49 0.308 4.99 0.344 7.49 0.0146 0.703 0.0292 1.41 0.0443 2.13 0.0462 2.23 0.0805 4.46 0.112 6.7 0.125 8.79 0.262 17.1 2.5 25.7v4c-1.81 0.625-1.81 0.625-4 1-0.99-0.66-1.98-1.32-3-2-2.07 0.12-2.07 0.12-4.25 0.75-1.2 0.298-1.2 0.298-2.43 0.602-1.89 0.53-3.77 1.14-5.63 1.77-6.34 1.5-13.7 2.39-19.6-0.75-4.16-3.22-7.36-6.27-9.06-11.4-0.761-6.64-0.448-12.4 3.22-18.1 6.7-7.27 19.4-9.11 28.8-10.9 2.98-0.105 2.98-0.105 5 0-0.957-6.43-2.3-10.4-7-15-5.28-1.76-11.2-1.99-16.5-0.105-1.88 0.95-3.7 2.02-5.5 3.11-0.99-0.66-1.98-1.32-3-2 0.375-2.75 0.375-2.75 2-6 9.08-5.94 19.6-5.69 28.8-0.488z" fill="#323030"/>
<path transform="translate(979 856)" d="m0 0c0.881 2.27e-4 1.76 4.53e-4 2.67 6.87e-4 0.947 0.0155 1.89 0.031 2.87 0.0469 0.972 0.00424 1.94 0.00849 2.95 0.0129 3.11 0.0168 6.22 0.0545 9.32 0.0926 2.11 0.015 4.21 0.0287 6.32 0.041 5.16 0.0331 10.3 0.0849 15.5 0.146 0.66 1.32 1.32 2.64 2 4-4.17 2.99-7.37 3.46-12.5 3.7-1.05 0.0567-1.05 0.0567-2.12 0.114-2.22 0.118-4.45 0.217-6.67 0.315-2.24 0.108-4.48 0.22-6.72 0.337-2.02 0.104-4.04 0.197-6.06 0.289-2.86-0.0822-2.86-0.0822-3.97 1.25-0.0999 2.06-0.131 4.12-0.133 6.19-0.00129 1.26-0.00258 2.51-0.00391 3.8 0.00209 0.657 0.00419 1.31 0.00635 1.99 0.00535 2.01 5.42e-5 4.02-0.00635 6.02 0.00193 1.88 0.00193 1.88 0.00391 3.8 0.00113 1.16 0.00226 2.32 0.00342 3.52-0.174 2.59-0.174 2.59 1.13 3.67 2.21 0.0756 4.42 0.0831 6.62 0.0625 0.662-0.00379 1.32-0.00757 2.01-0.0115 2.12-0.0123 4.25-0.0309 6.37-0.051 2.79-0.0265 5.58-0.0465 8.38-0.0625 1.25-0.0116 2.49-0.0232 3.77-0.0352 2.85 0.0977 2.85 0.0977 3.85 1.1 0.0408 2 0.0425 4 0 6-1.4 0.0376-1.4 0.0376-2.83 0.0759-3.45 0.0949-6.91 0.194-10.4 0.296-1.5 0.0434-2.99 0.0851-4.49 0.125-2.15 0.0576-4.29 0.121-6.44 0.186-1.94 0.055-1.94 0.055-3.92 0.111-2.84-0.128-2.84-0.128-3.96 1.21-0.387 3.67-0.471 7.37-0.625 11.1-0.0516 1.03-0.103 2.05-0.156 3.11-0.0438 1.01-0.0877 2.01-0.133 3.05-0.0408 0.915-0.0815 1.83-0.124 2.77 0.0468 3.74 0.524 7.3 1.04 11 1.02 0.0146 2.04 0.0292 3.09 0.0442 3.78 0.0579 7.55 0.135 11.3 0.218 1.64 0.0333 3.27 0.0613 4.91 0.084 2.35 0.0335 4.7 0.0858 7.04 0.142 0.733 0.00639 1.47 0.0128 2.22 0.0194 2.06 0.06 2.06 0.06 5.41 0.492 2.29 3.44 2.18 4.99 2 9-4.8 1.3-9.34 0.943-14.2 0.66-0.881-0.0458-1.76-0.0916-2.67-0.139-2.8-0.147-5.6-0.303-8.41-0.459-1.9-0.101-3.81-0.202-5.71-0.303-4.66-0.247-9.32-0.501-14-0.76-2.1-4.28-2.29-8.19-2.27-12.9-0.00511-0.776-0.0102-1.55-0.0155-2.35-0.0139-2.56-0.0129-5.11-0.0106-7.67-0.00389-1.78-0.00822-3.56-0.013-5.34-0.00745-3.72-0.00718-7.45-0.00191-11.2 0.00581-4.78-0.0112-9.55-0.0343-14.3-0.0147-3.67-0.0156-7.34-0.0125-11-5.14e-4 -1.76-0.00577-3.52-0.0158-5.28-0.0123-2.46-0.00561-4.92 0.00601-7.38-0.00764-0.729-0.0153-1.46-0.0232-2.21 0.0299-2.85 0.0855-4.91 1.65-7.35 2.2-1.31 3.57-1.41 6.13-1.39z" fill="#323030"/>
<path transform="translate(217,718)" d="m0 0v2h2c0.495 1.49 0.495 1.49 1 3l2 1c0.722 1.64 1.39 3.31 2 5-2.78 2.84-5.58 5.67-8.38 8.5-0.794 0.811-1.59 1.62-2.41 2.46-0.761 0.767-1.52 1.53-2.3 2.32-0.702 0.712-1.4 1.42-2.13 2.16-1.79 1.56-1.79 1.56-3.79 1.56v2c-1.35 1.33-1.35 1.33-3.29 2.92-5.12 4.36-9.86 9.08-14.6 13.8-1.5 1.5-3 3-4.5 4.5-0.96 0.961-1.92 1.92-2.88 2.88-0.86 0.861-1.72 1.72-2.61 2.61-2.25 2.26-2.25 2.26-4.12 5.25h-2c-0.238 0.563-0.477 1.13-0.723 1.71-1.56 2.79-3.45 4.73-5.71 6.98-0.782 0.788-1.56 1.58-2.37 2.39-2.19 1.93-2.19 1.93-5.19 2.93-0.33-0.66-0.66-1.32-1-2-1.64-0.722-3.31-1.39-5-2-0.963-2.77-1.36-4.14-1-7 2.26-3.68 5.14-6.78 8-10 1.19-1.54 2.38-3.08 3.56-4.62 6.03-7.53 12.8-14.4 19.4-21.4 0.585-0.609 1.17-1.22 1.77-1.84 7.03-7.27 14.3-13.9 22.2-20.2 1.36-1.16 2.72-2.33 4.06-3.5 4.11-3.5 4.11-3.5 7.94-3.5z" fill="#FAF8F4"/>
<path transform="translate(1279,884)" d="m0 0c6.16 5.17 8.53 11.5 9.35 19.4 0.28 6.64 0.28 6.64-0.352 9.64-4.98 4.09-10.5 4.13-16.8 4.13-1.28 0.00129-2.57 0.00258-3.89 0.00391-0.662-0.00209-1.32-0.00419-2.01-0.00635-2.03-0.00538-4.07-2.52e-5 -6.1 0.00635-1.92-0.00193-1.92-0.00193-3.88-0.00391-1.17-0.00113-2.35-0.00226-3.55-0.00342-2.81-0.129-2.81-0.129-4.81-1.13v-6c5.85-1.48 10.8-2.18 16.8-1.3 2.36 0.318 4.66 0.445 7.05 0.488 1.06 0.0213 1.06 0.0213 2.14 0.043 2.37-0.267 3.98-1.06 6.04-2.23-0.0253-7.01-0.536-11.6-5.53-16.8-3.38-2.85-6.68-2.58-10.9-2.52-3.78 0.409-5.7 1.77-8.53 4.27-0.525 0.463-1.05 0.926-1.59 1.4-5.87 5.87-7.3 13.2-7.5 21.3 0.358 8.47 1.28 12.8 7.53 18.6 5.65 3.86 10.4 4.03 17 3.94 1.25-9.67e-4 1.25-9.67e-4 2.53-0.00195 4.47-0.0318 8.62-0.423 13-1.19 1 1 1 1 1.06 3.56-0.0206 0.804-0.0412 1.61-0.0625 2.44-6.74 3.52-11.8 4.23-19.2 4.31-1.23 0.0435-1.23 0.0435-2.49 0.0879-9.72 0.1-16.1-4.31-23.1-10.9-6.3-7.22-6.87-15.7-6.6-24.9 0.553-5.08 2.04-9.09 4.39-13.6 0.398-0.949 0.398-0.949 0.805-1.92 3.3-7.11 10.7-11.4 17.8-14 7.94-2.23 14.3-1.49 21.4 2.94z" fill="#323030"/>
<path transform="translate(1509 856)" d="m0 0c1.68 9.67e-4 1.68 9.67e-4 3.39 0.00195 8.96 0.0484 8.96 0.0484 12.8 1.19 0.495 3.47 0.495 3.47 1 7-0.643-0.0209-1.29-0.0419-1.95-0.0635-23.5-1.25-23.5-1.25-44.4 8.17-9.83 11.1-11.5 21.5-10.7 35.9 0.978 8.19 4.2 16 10 22 13.5 8.92 29.6 7.21 45 6 0.33 1.65 0.66 3.3 1 5-7.34 6.75-22.1 4.49-31.4 4.18-5.09-0.347-9.22-1.67-13.6-4.18-0.803-0.447-1.61-0.895-2.43-1.36-9.14-5.6-14.7-13.1-17.7-23.4-1.04-4.37-1.26-8.56-1.22-13 0.00564-0.786 0.0113-1.57 0.0171-2.38 0.245-11.9 3.28-23.1 11.3-32.2 11.4-10.8 23.6-13.1 38.8-12.9z" fill="#323030"/>
<path transform="translate(522 784)" d="m0 0c2.65 0.985 3.97 2.32 5.93 4.35 0.7 0.714 1.4 1.43 2.12 2.16 0.721 0.75 1.44 1.5 2.18 2.27 1.44 1.48 2.88 2.96 4.32 4.44 0.952 0.988 0.952 0.988 1.92 2 1.56 1.66 1.56 1.66 3.63 2.57v2h2c1.41 1.4 1.41 1.4 3.06 3.38 2.66 3.14 5.38 6.18 8.19 9.19 5.29 5.87 9.91 12.2 14.5 18.6 1.16 1.63 2.33 3.26 3.51 4.88 3.9 5.54 7.02 11.2 9.77 17.4 0.455 1.01 0.455 1.01 0.919 2.04 1.55 3.63 2.45 6.56 2.08 10.5-1.32 0.33-2.64 0.66-4 1-0.33-0.99-0.66-1.98-1-3h-2c-1.34-1.29-1.34-1.29-2.94-3.19-0.934-1.1-0.934-1.1-1.89-2.22-0.718-0.855-1.44-1.71-2.18-2.59-0.831-0.968-1.66-1.94-2.52-2.93-4.26-4.97-8.43-9.97-12.4-15.2-4.64-6.05-9.54-11.8-14.8-17.3-0.606-0.65-1.21-1.3-1.83-1.97-3.73-3.93-7.62-7.57-11.7-11.1-2.37-2.05-4.55-4.26-6.74-6.51-4.16-4.26-8.36-8.27-13-12 5.14-5.57 5.14-5.57 9-6v-2c2-1 2-1 3.89-0.785z" fill="#FAF8F4"/>
<path transform="translate(1370 865)" d="m0 0c5.69 4.85 10.1 11.4 11.4 18.7-0.855 5.89-4.19 9.02-8.56 12.9-6.72 4.63-12 6.14-20.1 6.12-1.24 0.00258-2.48 0.00516-3.76 0.00781-3.12-0.133-3.12-0.133-5.12-1.13-1.61-5.68-1.26-11.7-1.3-17.5-0.0116-1.35-0.0321-2.69-0.0615-4.04-0.0426-1.95-0.0562-3.91-0.0691-5.86-0.0146-1.16-0.0292-2.32-0.0442-3.52 0.567-3.67 1.57-4.8 4.47-7.04 7.15-2.19 16.5-2.42 23.1 1.39z" fill="#FBFEFF"/>
<path transform="translate(742 864)" d="m0 0c4.89 2.62 7.7 5.49 9.5 10.9 0.146 2.27 0.221 4.54 0.25 6.81 0.0258 1.2 0.0516 2.41 0.0781 3.64-0.444 4.8-1.92 8.13-5.33 11.5-4.83 1.14-9.63 1.18-14.6 1.19-0.742 0.0122-1.48 0.0245-2.25 0.0371-1.09 0.0029-1.09 0.0029-2.19 0.00586-0.648 0.00411-1.3 0.00822-1.96 0.0125-2.57-0.307-4.68-1.21-7.03-2.24-0.0582-4.23-0.0937-8.46-0.125-12.7-0.0168-1.2-0.0335-2.4-0.0508-3.63-0.00645-1.16-0.0129-2.31-0.0195-3.51-0.0105-1.06-0.0209-2.13-0.0317-3.22 0.236-3.07 0.857-5.21 2.23-7.95 5.47-4.07 15.3-2.86 21.5-0.875z" fill="#FBFFFF"/>
<path transform="translate(1098,866)" d="m0 0c2.25 1.77 2.95 2.58 3.29 5.48-0.0348 0.893-0.0696 1.79-0.105 2.71-0.0271 0.901-0.0541 1.8-0.082 2.73-0.0348 0.687-0.0696 1.37-0.105 2.08 0.892 0.11 1.78 0.219 2.7 0.332 1.17 0.159 2.34 0.317 3.55 0.48 1.74 0.226 1.74 0.226 3.52 0.457 3.22 0.727 4.82 1.55 7.23 3.73-0.875 4.88-0.875 4.88-2 6-5.7 0.559-8.51-0.494-13-4-1.93 1.93-1.13 4.8-1.14 7.36 0.00202 0.895 0.00405 1.79 0.00613 2.71-9.57e-4 0.917-0.00191 1.83-0.0029 2.78-6.82e-4 1.95 0.00117 3.89 0.00534 5.84 0.00532 2.97 7.23e-5 5.93-0.00635 8.9 6.61e-4 1.89 0.00194 3.78 0.00391 5.67-0.00202 0.885-0.00405 1.77-0.00613 2.68 0.0168 4.47 0.235 8.66 1.14 13.1 0.843 0.193 1.69 0.387 2.55 0.586 1.1 0.26 2.19 0.521 3.32 0.789 1.64 0.383 1.64 0.383 3.3 0.773 2.82 0.852 2.82 0.852 4.82 2.85 0.125 3.12 0.125 3.12 0 6-13.1 0.58-13.1 0.58-19-3-6.28-5.94-6.32-14.6-6.63-22.8-0.0416-0.899-0.0831-1.8-0.126-2.72-0.13-2.84-0.248-5.68-0.366-8.53-0.0865-1.94-0.174-3.88-0.262-5.82-0.213-4.73-0.416-9.46-0.613-14.2-2.31-0.66-4.62-1.32-7-2-0.33-1.32-0.66-2.64-1-4 3-2 3-2 6-2.75 3.21-1 3.21-1 4.75-4 0.833-2.16 1.6-4.35 2.31-6.56 0.938-2.69 0.938-2.69 2.94-3.69z" fill="#323030"/>
<path transform="translate(1408,856)" d="m0 0c4.56 0.556 4.56 0.556 6 2 0.0771 2.77 0.0905 5.51 0.0625 8.27-0.00858 1.78-0.017 3.56-0.0254 5.33-0.0062 0.942-0.0124 1.88-0.0188 2.85-0.0979 15.6-0.0106 31.1 0.482 46.7 0.024 0.761 0.048 1.52 0.0728 2.31 0.134 4.17 0.276 8.34 0.427 12.5 1.71-0.0157 1.71-0.0157 3.46-0.0317 4.22-0.0361 8.45-0.0591 12.7-0.0781 1.83-0.0101 3.66-0.0237 5.49-0.041 2.63-0.0242 5.25-0.0356 7.88-0.0444 0.821-0.0103 1.64-0.0206 2.49-0.0313 2.01-3.99e-4 4.02 0.104 6.02 0.227 2 2 2 2 2.19 4.56-0.188 2.44-0.188 2.44-1.19 3.44-1.47 0.0982-2.94 0.128-4.41 0.129-0.938 0.00315-1.88 0.0063-2.84 0.00955-1.02-0.00202-2.04-0.00405-3.09-0.00613-1.56 0.00144-1.56 0.00144-3.15 0.0029-2.2 6.82e-4 -4.41-0.00117-6.61-0.00534-3.38-0.00535-6.77-5.55e-5 -10.2 0.00635-2.13-6.61e-4 -4.27-0.00194-6.4-0.00391-1.02 0.00202-2.04 0.00405-3.09 0.00613-1.41-0.00473-1.41-0.00473-2.84-0.00955-0.83-7.96e-4 -1.66-0.00159-2.51-0.00241-1.9-0.127-1.9-0.127-2.9-1.13-0.106-2.64-0.147-5.25-0.145-7.88-0.00336-0.826-0.00672-1.65-0.0102-2.5-0.00954-2.74-0.0115-5.49-0.0125-8.23-0.00321-1.9-0.00657-3.8-0.0101-5.7-6e-3 -3.99-0.00784-7.97-0.00725-12 1.02e-4 -5.12-0.0136-10.2-0.0308-15.4-0.0111-3.92-0.0131-7.85-0.0126-11.8-0.00118-1.89-0.00563-3.78-0.0133-5.66-0.00975-2.64-0.00694-5.27-8.95e-4 -7.91-0.00562-0.786-0.0112-1.57-0.017-2.38 0.0316-5.4 0.0316-5.4 2.26-7.63z" fill="#323030"/>
<path transform="translate(1068,881)" d="m0 0c1.06 1.81 1.06 1.81 2 4-0.33 0.99-0.66 1.98-1 3-1.25-0.0696-1.25-0.0696-2.53-0.141-7.23-0.232-13.3-0.0495-19.5 4.14-2.06 3.09-2.24 3.71-2.12 7.19 0.0412 1.26 0.0825 2.52 0.125 3.81 0.498 0.245 0.995 0.49 1.51 0.742 20.1 10.1 20.1 10.1 23.7 15.9 1.89 5.76 2.08 13-0.117 18.7-2.73 4.16-7.28 5.15-11.9 6.26-3.6 0.687-7.12 0.792-10.8 0.798-0.716 0.0245-1.43 0.049-2.17 0.0742-5.51 0.0301-8.68-1.4-13.3-4.45 0.812-1.94 0.812-1.94 2-4 3-1 3-1 6.25-0.0625 7.06 2 13.2 1.16 19.8-1.94 2.48-2.04 2.94-2.6 3.44-5.88-0.551-3.93-1.71-5.26-4.44-8.12-3.15-1.85-3.15-1.85-6.69-3.38-14.4-6.75-14.4-6.75-17.3-12.6-0.528-6.22-0.725-11.7 3-17 8.51-8.51 18.9-7.34 30-7z" fill="#323030"/>
<path transform="translate(1202,870)" d="m0 0h4c2.88 6.62 2.88 6.62 4 10 0.748 0.0258 1.5 0.0516 2.27 0.0781 8.14 0.469 8.14 0.469 11.4 2.98 0.433 0.639 0.866 1.28 1.31 1.94-2.26 2.74-3.48 3.89-7.02 4.61-1.6 0.0696-1.6 0.0696-3.23 0.141-1.62 0.0851-1.62 0.0851-3.27 0.172-0.82 0.0258-1.64 0.0516-2.48 0.0781-0.791 5.6-1.19 11-1.19 16.7 8.06e-4 0.779 0.00161 1.56 0.00244 2.36-0.082 12.5-0.082 12.5 4.19 24 2.32 1.66 2.32 1.66 5 3.06 3.37 1.85 4.83 2.68 7 5.94-0.375 2.69-0.375 2.69-1 5-7.04-0.0263-12.5-0.863-18.2-5.12-3.06-3.17-4.02-6.62-4.81-10.9-0.167-0.873-0.335-1.75-0.508-2.65-0.557-3.8-0.719-7.55-0.809-11.4-0.0208-0.746-0.0416-1.49-0.063-2.26-0.0649-2.36-0.124-4.73-0.183-7.09-0.0432-1.61-0.0869-3.22-0.131-4.83-0.107-3.93-0.208-7.86-0.307-11.8-0.928-0.217-0.928-0.217-1.88-0.438-2.12-0.562-2.12-0.562-4.12-1.56 0.383-5.49 2.15-7.24 6-11 1.2-2.28 2.07-4.58 3-7 0.33-0.33 0.66-0.66 1-1z" fill="#323030"/>
<path transform="translate(914,850)" d="m0 0c2.06 0.25 2.06 0.25 4 1 1.67 3.34 1.18 7.09 1.21 10.8 0.0099 0.907 0.0198 1.81 0.03 2.75 0.0317 3.01 0.0564 6.02 0.0811 9.03 0.0206 2.08 0.0416 4.16 0.063 6.25 0.0553 5.49 0.105 11 0.153 16.5 0.0502 5.6 0.106 11.2 0.161 16.8 0.108 11 0.209 22 0.307 33-2.88 0.625-2.88 0.625-6 1-3.45-3.45-3.13-7.11-3.13-11.8-0.00315-1.18-0.0063-2.35-0.00955-3.57 0.00202-1.28 0.00405-2.55 0.00613-3.87-6.76e-4 -1.34-0.00165-2.69-0.0029-4.03-0.00148-2.83 6.68e-4 -5.67 0.00534-8.5 0.00558-3.55 0.00239-7.09-0.00342-10.6-0.0194-13.8 0.0649-27.7 0.517-41.5 0.0304-1.1 0.0607-2.19 0.092-3.32 0.0381-0.997 0.0762-1.99 0.116-3.02 0.0459-1.3 0.0459-1.3 0.0928-2.63 0.317-2.09 0.317-2.09 2.32-4.09z" fill="#323030"/>
<path transform="translate(1166,910)" d="m0 0c2.24 2.24 1.33 7.24 1.38 10.2 0.0374 0.86 0.0748 1.72 0.113 2.61 0.0625 4.51 0.0414 6.48-2.84 10.1-0.874 0.67-1.75 1.34-2.65 2.03-0.908 0.742-1.82 1.49-2.75 2.25-4.1 2.21-7.59 3.1-12.2 2.75-4.35-2.14-7.53-4.81-10-9-0.837-4.2-0.709-6.91 1.66-10.6 2.6-2.72 4.89-4.04 8.28-5.64 1.53-0.733 1.53-0.733 3.09-1.48 5.85-2.62 9.57-3.65 16-3.33z" fill="#FBFFFF"/>
<path transform="translate(880,911)" d="m0 0c2.08 2.08 1.23 6.33 1.25 9.19 0.0206 0.756 0.0412 1.51 0.0625 2.29 0.0342 4.93-0.594 8.25-3.31 12.5-4.36 3.75-8.34 5.09-14 5-5.01-0.983-8.03-2.81-11-7-0.773-4.92-0.868-9.77 2-14 6.97-4.73 16.5-8.51 25-8z" fill="#FAFEFF"/>
<path transform="translate(812,888)" d="m0 0c5.02 3.01 8.16 7.47 10 13 0.128 2.67 0.0439 5.32 0 8-0.779-0.0232-1.56-0.0464-2.36-0.0703-10.7-0.172-21.1 0.878-31.6 2.07-1.21-6.19-0.62-9.2 2.33-14.6 5.51-7.84 12.5-10.4 21.7-8.38z" fill="#FAFEFF"/>
<path transform="translate(366,882)" d="m0 0c4.95 0.33 9.9 0.66 15 1v2h-16c0.33-0.99 0.66-1.98 1-3z" fill="#FBFDFD"/>
<path transform="translate(1209,881)" d="m0 0v5c-1.65 0.33-3.3 0.66-5 1v-4c3.88-2 3.88-2 5-2z" fill="#FBF9F5"/>
<path transform="translate(408,770)" d="m0 0h2v10h-3c-0.125-7.75-0.125-7.75 1-10z" fill="#FCFDFF"/>
</svg>
